# xmcd
#
# Track frame offsets:
#  150
#  10313
#  21481
#  31566
#  45332
#  57231
#  69618
#  80218
#  91976
#  101827
#  111441
#  123112
#  133743
#  142850
#  153203
#  164428
#  175361
#  187834
#  198426
#  208328
#  217929
#  228854
#  239038
#  249136
#  259761
#  272389
#  282818
#  292736
#  304208
#  313852
#  324187
#  333323
#
# Disc length: 4572 seconds
#
# Revision: 0
# Processed by: cddbd v1.5.2PL0 Copyright (c) Steve Scherf et al.
# Submitted via: AltoMP3_Maker 3.0
#
DISCID=c111da20
DTITLE=Various Artist - Decca Hillbilly, Vol. 3
DYEAR=1900
DGENRE=
TTITLE0=The Howington Bros - TX Rooster Fight
TTITLE1=Charlie Walker - Tell Her Lies and Feed Her Candy
TTITLE2=Jack and Daniel - Knot Hole
TTITLE3=Jimmie Davis - Cherokee Boogie
TTITLE4=Clyde Moody - Whatta Line
TTITLE5=Buz Butler - A Year of City Living
TTITLE6=Charlie Monroe - These Triflin' Women
TTITLE7=Red Sovine - Outlaw
TTITLE8=Glen Douglas - Used up Love
TTITLE9=The Wilburn Bros - I Close My Eyes
TTITLE10=Rex Prophet - Travellin' Kind
TTITLE11=Hank Locklin - Baby You Can Count Me in
TTITLE12=Goldie Hill - Sample My Kissin'
TTITLE13=Tommy Hill - I Ain't Settin' Where I Was
TTITLE14=Hardrock Gunter - Honky Tonk Baby
TTITLE15=Charlie Walker - You Don't Need No Other Daddy Like Me
TTITLE16=Billy Gray - Farther on down the Road
TTITLE17=The Howington Bros - Two Faced
TTITLE18=Autry Inman - All of a Sudden
TTITLE19=Jack and Daniel - Throwing Water on the Flames
TTITLE20=Rex Prophet - Goodbye Katie, Bar the Door
TTITLE21=Lonzo and Oscar - Skunk Skin Britches
TTITLE22=Jack Bradshaw - My Heart My Heart
TTITLE23=Jimmy Logsdon - My Sweet French Baby
TTITLE24=Salty Holmes - The Ghost Song
TTITLE25=Red Foley - Tennessee Hillbilly Ghost
TTITLE26=jimmie Skinner - Baby I Could Change Your Ways
TTITLE27=Hardrock Gunter - Hesitation Boogie
TTITLE28=The Wilburn Bros - I Wanna Wanna Wanna
TTITLE29=Ernest Tubb - So Doggone Lonesome
TTITLE30=Red Sovine - Hold Everything
TTITLE31=Benny Martin - Untrue You
EXTD=
EXTT0=
EXTT1=
EXTT2=
EXTT3=
EXTT4=
EXTT5=
EXTT6=
EXTT7=
EXTT8=
EXTT9=
EXTT10=
EXTT11=
EXTT12=
EXTT13=
EXTT14=
EXTT15=
EXTT16=
EXTT17=
EXTT18=
EXTT19=
EXTT20=
EXTT21=
EXTT22=
EXTT23=
EXTT24=
EXTT25=
EXTT26=
EXTT27=
EXTT28=
EXTT29=
EXTT30=
EXTT31=
PLAYORDER=
